<svg xmlns="http://www.w3.org/2000/svg" viewBox="0 0 32 32" width="32" height="32">
  <defs>
    <linearGradient id="bg" x1="0" y1="0" x2="1" y2="1">
      <stop offset="0%" stop-color="#003eb8"/>
      <stop offset="100%" stop-color="#0052d4"/>
    </linearGradient>
  </defs>
  <rect width="32" height="32" rx="7" fill="url(#bg)"/>
  <!-- S letter -->
  <path d="M7 10.5 C7 8.6 8.6 7 10.5 7 L14 7 C15.9 7 17.5 8.6 17.5 10.5 C17.5 12.4 15.9 14 14 14 L10.5 14 C8.6 14 7 15.6 7 17.5 C7 19.4 8.6 21 10.5 21 L14 21"
        fill="none" stroke="white" stroke-width="2" stroke-linecap="round"/>
  <!-- B letter -->
  <path d="M19 7 L19 25 M19 7 L22 7 C24.2 7 26 8.8 26 11 C26 13.2 24.2 15 22 15 L19 15 M19 15 L23 15 C25.2 15 27 16.8 27 19 C27 21.2 25.2 23 23 23 L19 23"
        fill="none" stroke="white" stroke-width="2" stroke-linecap="round" stroke-linejoin="round"/>
</svg>
